PathFileType	4	(X/Y/Z)	D:\TRACE\v60_Jaco2_6-2-23\JustArmDRS_Motion3_4-platform.trc
DataRate	CameraRate	NumFrames	NumMarkers	Units	OrigDataRate	OrigDataStartFrame	OrigNumFrames
100.00	100.00	      60	5	mm	100.00	1	      7000
Frame#	Time	Left_Front			Right_Front			Left_Aft			Right_Aft			Post			
		X1	Y1	Z1	X2	Y2	Z2	X3	Y3	Z3	X4	Y4	Z4	X5	Y5	Z5	

1	0.000	-814.67517	128.36967	-611.88171	755.77789	125.63872	-588.82971	-746.01978	-73.70779	504.15421	668.63019	-92.46119	608.24835	-21.54555	1462.25879	-684.23163	
2	0.010	-814.64484	128.32787	-611.91180	755.77997	125.63172	-588.83008	-746.01227	-73.75906	504.19110	668.66431	-92.45933	608.23712	-21.49049	1462.26038	-684.23132	
3	0.020	-814.59192	128.29491	-611.85168	755.78156	125.64042	-588.83307	-745.99164	-73.70280	504.15366	668.67664	-92.41917	608.27124	-21.46743	1462.25586	-684.22833	
4	0.030	-814.38818	128.04875	-611.39337	755.80573	125.62100	-588.81042	-746.02844	-73.73215	504.19971	668.56659	-92.53222	608.22687	-21.49419	1462.22510	-684.20972	
5	0.040	-814.67310	128.37213	-611.87561	755.80597	125.60910	-588.81677	-746.03876	-73.69057	504.18951	668.60828	-92.48392	608.23560	-21.52515	1462.23450	-684.24805	
6	0.050	-814.66541	128.35199	-611.90375	755.80640	125.60333	-588.80231	-746.00507	-73.73328	504.16928	668.63446	-92.46149	608.26355	-21.50108	1462.25403	-684.24500	
7	0.060	-814.69531	128.38425	-611.88818	755.79071	125.61501	-588.81586	-746.02948	-73.69589	504.20587	668.85522	-92.48933	608.31354	-21.52045	1462.25171	-684.23090	
8	0.070	-814.65198	128.34785	-611.89337	755.79205	125.60783	-588.83124	-746.02783	-73.72720	504.16077	668.64551	-92.44955	608.25800	-21.49783	1462.26453	-684.24902	
9	0.080	-814.66528	128.36826	-611.90735	755.81549	125.61752	-588.81439	-746.00861	-73.70645	504.16193	668.66333	-92.43726	608.24060	-21.51646	1462.26477	-684.21887	
10	0.090	-814.68604	128.38010	-611.89905	755.79083	125.63866	-588.84857	-746.01044	-73.69647	504.13968	668.67804	-92.42575	608.24506	-21.53901	1462.24133	-684.25415	
11	0.100	-814.68195	128.31819	-611.89551	755.80438	125.61134	-588.83496	-746.00427	-73.73951	504.15558	668.69983	-92.45691	608.23578	-21.51597	1462.21606	-684.24298	
12	0.110	-814.66071	128.34921	-611.91937	755.83575	125.62022	-588.83038	-745.99908	-73.73405	504.21075	668.79297	-92.35735	608.24817	-21.47685	1462.26904	-684.25714	
13	0.120	-814.66193	128.34599	-611.89240	755.80365	125.61587	-588.83380	-746.00946	-73.71207	504.17603	668.63593	-92.46513	608.22095	-21.52642	1462.26636	-684.25653	
14	0.130	-814.68127	128.38974	-611.87817	755.79059	125.61304	-588.84259	-746.02094	-73.72444	504.18616	668.78210	-92.36347	608.25226	-21.49920	1462.26807	-684.24969	
15	0.140	-814.46130	128.13034	-611.46558	755.78217	125.60841	-588.83020	-746.01953	-73.73194	504.14020	668.64600	-92.45919	608.23511	-21.46384	1462.24231	-684.24207	
16	0.150	-814.71539	128.40741	-611.91217	755.80847	125.63822	-588.80042	-746.01642	-73.74008	504.15137	668.62030	-92.45052	608.24548	-21.54402	1462.24451	-684.23407	
17	0.160	-814.71082	128.38850	-611.89301	755.80621	125.64008	-588.83704	-746.01208	-73.71046	504.18179	668.63220	-92.46659	608.24554	-21.50919	1462.24609	-684.26404	
18	0.170	-814.39819	128.07486	-611.41589	755.81592	125.64442	-588.82733	-746.01892	-73.76050	504.19131	668.68860	-92.45779	608.24146	-21.52076	1462.21851	-684.24811	
19	0.180	-814.67938	128.36137	-611.90198	755.81134	125.63438	-588.83380	-746.01825	-73.70014	504.18558	668.69379	-92.44731	608.22699	-21.49305	1462.24500	-684.26764	
20	0.190	-814.65405	128.35234	-611.89917	755.78699	125.61959	-588.86658	-746.00409	-73.70927	504.16397	668.69183	-92.40397	608.26276	-21.50113	1462.25281	-684.27240	
21	0.200	-814.71729	128.40257	-611.87372	755.79633	125.60052	-588.83667	-746.03955	-73.69971	504.17535	668.65338	-92.44627	608.23053	-21.49924	1462.25525	-684.24298	
22	0.210	-814.68842	128.39740	-611.89508	755.80383	125.61127	-588.83118	-746.01025	-73.74454	504.19025	668.59357	-92.48059	608.24530	-21.52165	1462.22412	-684.23743	
23	0.220	-814.67242	128.34482	-611.90692	755.81110	125.60475	-588.81628	-745.99567	-73.74236	504.22229	668.74286	-92.43057	608.21478	-21.49572	1462.21851	-684.27594	
24	0.230	-814.62177	128.32483	-611.88110	755.81958	125.61302	-588.80353	-745.98889	-73.76900	504.20029	668.68048	-92.56928	608.32849	-21.53441	1462.22766	-684.23682	
25	0.240	-814.60712	128.31314	-611.89886	755.82227	125.63006	-588.80212	-746.00079	-73.75211	504.18826	668.64819	-92.44101	608.25842	-21.56179	1462.24194	-684.24933	
26	0.250	-814.34589	128.02933	-611.33002	755.82800	125.63260	-588.81195	-746.02002	-73.74172	504.16086	668.67334	-92.48719	608.20337	-21.51745	1462.25134	-684.24316	
27	0.260	-814.64240	128.36354	-611.90735	755.80432	125.61172	-588.83374	-746.00720	-73.71658	504.18958	668.65759	-92.44179	608.25079	-21.47765	1462.20581	-684.23584	
28	0.270	-814.66547	128.36375	-611.87378	755.78296	125.58936	-588.82202	-746.02985	-73.73514	504.17459	668.58545	-92.53669	608.22058	-21.51377	1462.22620	-684.26233	
29	0.280	-814.66486	128.34424	-611.88806	755.78070	125.62231	-588.84320	-746.01538	-73.74077	504.17484	668.75464	-92.41613	608.22302	-21.54296	1462.23474	-684.23035	
30	0.290	-814.64325	128.32492	-611.91486	755.78461	125.61038	-588.85486	-746.03204	-73.69732	504.18164	668.64160	-92.45450	608.25623	-21.50927	1462.23682	-684.24780	
31	0.300	-814.66223	128.36024	-611.91504	755.81366	125.63273	-588.81580	-746.01703	-73.72576	504.16528	668.67969	-92.47508	608.20306	-21.47482	1462.25232	-684.24225	
32	0.310	-814.67548	128.38899	-611.87976	755.80145	125.62193	-588.83154	-746.02557	-73.68346	504.12943	668.72656	-92.43661	608.21851	-21.47761	1462.22498	-684.24158	
33	0.320	-814.41455	128.13966	-611.41309	755.78839	125.63356	-588.83710	-746.04919	-73.68319	504.13306	668.65643	-92.47630	608.22864	-21.49600	1462.24438	-684.21851	
34	0.330	-814.63037	128.33365	-611.90637	755.83496	125.60794	-588.83527	-746.03247	-73.73413	504.19702	668.83777	-92.53181	608.29138	-21.48213	1462.23254	-684.23230	
35	0.340	-814.65332	128.33252	-611.90729	755.77887	125.59740	-588.82178	-746.02277	-73.75249	504.19009	668.59967	-92.54221	608.20496	-21.54878	1462.22510	-684.22113	
36	0.350	-814.68146	128.35335	-611.89557	755.79468	125.60674	-588.81525	-746.02838	-73.75352	504.19199	668.64001	-92.46873	608.23999	-21.53703	1462.23633	-684.25781	
37	0.360	-814.69543	128.36061	-611.89209	755.78973	125.64053	-588.83362	-746.03632	-73.64944	504.18069	668.67877	-92.43904	608.22974	-21.55113	1462.25281	-684.25305	
38	0.370	-814.65863	128.35242	-611.86609	755.80499	125.63149	-588.82434	-746.01062	-73.71394	504.14795	668.74323	-92.41648	608.22333	-21.52867	1462.26575	-684.24689	
39	0.380	-814.66949	128.34966	-611.85693	755.81726	125.61224	-588.81177	-746.03485	-73.74190	504.18698	668.75757	-92.37996	608.25195	-21.55466	1462.23279	-684.24811	
40	0.390	-814.65930	128.34550	-611.85938	755.83508	125.60384	-588.78796	-746.02374	-73.72507	504.20679	668.66235	-92.41430	608.25916	-21.59511	1462.24646	-684.23480	
41	0.400	-814.64819	128.33098	-611.88892	755.78949	125.59785	-588.81165	-746.02820	-73.78408	504.20920	668.60498	-92.55103	608.18170	-21.53624	1462.23999	-684.25806	
42	0.410	-814.63940	128.34683	-611.92963	755.81299	125.62794	-588.82843	-746.05481	-73.71529	504.19037	668.65485	-92.46986	608.22479	-21.55035	1462.25122	-684.25256	
43	0.420	-814.66968	128.34933	-611.89386	755.81818	125.63734	-588.81622	-746.02545	-73.72608	504.17612	668.67480	-92.42760	608.24707	-21.54800	1462.23425	-684.23108	
44	0.430	-814.68005	128.36513	-611.89301	755.80823	125.63586	-588.81561	-746.03235	-73.70042	504.17624	668.71606	-92.44960	608.20135	-21.51458	1462.24304	-684.24823	
45	0.440	-814.64056	128.33211	-611.87781	755.79584	125.61801	-588.82117	-746.01776	-73.73474	504.16873	668.53204	-92.53652	608.24225	-21.50373	1462.23352	-684.23035	
46	0.450	-814.65753	128.33858	-611.89545	755.81274	125.61019	-588.80719	-745.99847	-73.76602	504.20789	668.70239	-92.54334	608.33936	-21.53909	1462.21875	-684.20673	
47	0.460	-814.64899	128.31969	-611.90118	755.80219	125.59563	-588.81726	-746.00507	-73.73380	504.21271	668.62531	-92.46366	608.24493	-21.57333	1462.22559	-684.23846	
48	0.470	-814.64771	128.34708	-611.90662	755.81934	125.60184	-588.81183	-746.02576	-73.72457	504.18195	668.69147	-92.37909	608.27264	-21.52193	1462.26306	-684.22198	
49	0.480	-814.65045	128.36200	-611.85797	755.80206	125.62602	-588.81921	-746.02222	-73.71382	504.19940	668.64380	-92.42851	608.25446	-21.53260	1462.24854	-684.23083	
50	0.490	-814.68341	128.36014	-611.90637	755.79364	125.61944	-588.83014	-746.04919	-73.69452	504.15335	668.68549	-92.43598	608.22131	-21.56371	1462.27783	-684.21088	
51	0.500	-814.38300	128.06119	-611.38898	755.80408	125.61875	-588.81775	-746.02124	-73.70634	504.16385	668.61121	-92.42735	608.28595	-21.51136	1462.26770	-684.24261	
52	0.510	-814.68066	128.35907	-611.90692	755.76703	125.63155	-588.81097	-746.02405	-73.73206	504.19608	668.85175	-92.49912	608.30878	-21.53106	1462.26123	-684.25079	
53	0.520	-814.68707	128.37718	-611.88037	755.78503	125.62306	-588.82214	-746.03333	-73.73485	504.17221	668.68665	-92.44269	608.22687	-21.58082	1462.23840	-684.23816	
54	0.530	-814.65240	128.32953	-611.88385	755.77979	125.60907	-588.83063	-746.03607	-73.71818	504.18375	668.61017	-92.48914	608.20972	-21.53263	1462.24561	-684.23096	
55	0.540	-814.68365	128.42116	-611.85809	755.77405	125.61839	-588.83997	-746.04413	-73.71935	504.16248	668.69318	-92.40317	608.25342	-21.55683	1462.24463	-684.23700	
56	0.550	-814.41736	128.11014	-611.45361	755.79498	125.62630	-588.81696	-746.03754	-73.74570	504.18085	668.72144	-92.43129	608.20569	-21.52416	1462.26794	-684.20477	
57	0.560	-814.65106	128.35181	-611.88812	755.75940	125.61391	-588.81818	-746.03369	-73.72337	504.19977	668.55963	-92.47891	608.26099	-21.49913	1462.21716	-684.22095	
58	0.570	-814.67377	128.34099	-611.88873	755.79071	125.60094	-588.82349	-746.02563	-73.76797	504.19141	668.72339	-92.43263	608.24420	-21.45641	1462.23096	-684.21747	
59	0.580	-814.65314	128.31221	-611.90582	755.81720	125.59370	-588.80322	-746.03186	-73.73092	504.18683	668.67267	-92.49513	608.19989	-21.55478	1462.23352	-684.26300	
60	0.590	-814.63892	128.32538	-611.93427	755.78937	125.62434	-588.82581	-746.03156	-73.70840	504.18878	668.69452	-92.46012	608.20129	-21.57990	1462.25708	-684.26624	
